<?xml version="1.0" encoding="UTF-8"?><svg xmlns="http://www.w3.org/2000/svg" xmlns:xlink="http://www.w3.org/1999/xlink" viewBox="0 0 1140 800"><defs><radialGradient id="radial-gradient" cx="-1049.37" cy="682.77" fx="-1049.37" fy="682.77" r="258.75" gradientTransform="translate(1298.09 586.82) scale(.69 .14)" gradientUnits="userSpaceOnUse"><stop offset="0" stop-color="#000"/><stop offset="1" stop-color="#000" stop-opacity="0"/></radialGradient><radialGradient id="radial-gradient-2" cx="-1342.61" cy="432.28" fx="-1342.61" fy="432.28" r="258.75" gradientTransform="translate(1163.44 571.4) rotate(-3.94) scale(.71 .14) skewX(-.78)" xlink:href="#radial-gradient"/><radialGradient id="radial-gradient-3" cx="9910.33" cy="984.81" fx="9910.33" fy="984.81" r="258.75" gradientTransform="translate(7981.52 1046.28) rotate(-176.06) scale(.71 -.14) skewX(-.78)" xlink:href="#radial-gradient"/><linearGradient id="linear-gradient" x1="420.44" y1="111.05" x2="589.63" y2="451.21" gradientUnits="userSpaceOnUse"><stop offset="0" stop-color="#151c2b"/><stop offset="1" stop-color="#223654"/></linearGradient><linearGradient id="linear-gradient-2" x1="641.26" y1="375.18" x2="677.62" y2="458.77" gradientUnits="userSpaceOnUse"><stop offset="0" stop-color="#d4d8df"/><stop offset="1" stop-color="#525a6a"/></linearGradient><linearGradient id="linear-gradient-3" x1="633.61" y1="386.53" x2="645.18" y2="413.14" xlink:href="#linear-gradient-2"/><linearGradient id="linear-gradient-4" x1="64.3" y1="690.54" x2="64.3" y2="40.62" xlink:href="#linear-gradient"/><linearGradient id="linear-gradient-5" x1="42.96" y1="75.53" x2="310.47" y2="595.92" xlink:href="#linear-gradient"/><linearGradient id="linear-gradient-6" x1="282.84" y1="363.32" x2="318.68" y2="445.71" xlink:href="#linear-gradient-2"/><linearGradient id="linear-gradient-7" x1="275.01" y1="372.75" x2="286.59" y2="399.36" xlink:href="#linear-gradient-2"/><linearGradient id="linear-gradient-8" x1="8046.17" y1="690.54" x2="8046.17" y2="40.62" gradientTransform="translate(9121.87) rotate(-180) scale(1 -1)" xlink:href="#linear-gradient"/><linearGradient id="linear-gradient-9" x1="8024.83" y1="75.53" x2="8292.34" y2="595.92" gradientTransform="translate(9121.87) rotate(-180) scale(1 -1)" xlink:href="#linear-gradient"/><linearGradient id="linear-gradient-10" x1="8095.76" y1="363.33" x2="8131.95" y2="446.53" gradientTransform="translate(9121.87) rotate(-180) scale(1 -1)" xlink:href="#linear-gradient-2"/><linearGradient id="linear-gradient-11" x1="1164.58" y1="371.52" x2="1176.69" y2="399.34" gradientTransform="translate(-185.45)" xlink:href="#linear-gradient-2"/></defs><g id="Layer_5"><ellipse cx="570" cy="682.77" rx="184.62" ry="36.7" fill="url(#radial-gradient)" opacity=".5"/><path d="M396.82,685.01c0,20.27-84.83,42.55-189.48,49.76-104.65,7.22-189.48-3.37-189.48-23.63s84.83-42.55,189.48-49.76c104.65-7.22,189.48,3.37,189.48,23.63Z" fill="url(#radial-gradient-2)" opacity=".5"/><path d="M734.69,685.01c0,20.27,84.83,42.55,189.48,49.76,104.65,7.22,189.48-3.37,189.48-23.63s-84.83-42.55-189.48-49.76c-104.65-7.22-189.48,3.37-189.48,23.63Z" fill="url(#radial-gradient-3)" opacity=".5"/></g><g id="Layer_3"><rect x="430.69" y="117.18" width="278.62" height="561.6" fill="#223654"/><polygon points="72.51 710.22 358.04 684.39 358.04 111.56 72.51 85.73 72.51 710.22" fill="#223654"/><rect x="449.38" y="138.24" width="241.24" height="540.54" fill="#151c2b"/><rect x="455.74" y="144.73" width="228.53" height="534.04" fill="url(#linear-gradient)"/><rect x="640.3" y="375.78" width="36.42" height="78.14" fill="url(#linear-gradient-2)"/><path d="M663.99,394.02h-46.54c-2.45,0-4.43,1.99-4.43,4.43v8.87c0,2.45,1.99,4.43,4.43,4.43h2.21c2.45,0,4.43-1.99,4.43-4.43h0c0-2.45,1.99-4.43,4.43-4.43h35.46c2.45,0,4.43-1.99,4.43-4.43h0c0-2.45-1.99-4.43-4.43-4.43Z" fill="url(#linear-gradient-3)"/><circle cx="659.33" cy="419.76" r="6.37" fill="#151c2b"/><rect x="655.86" y="420.91" width="6.94" height="17.73" fill="#151c2b"/><polygon points="72.51 85.73 56.1 93.64 56.1 705.84 72.51 710.22 72.51 85.73" fill="url(#linear-gradient-4)"/><polygon points="107.72 707.04 107.72 117.18 333.1 134.4 333.1 686.65 107.72 707.04" fill="url(#linear-gradient-5)"/><polygon points="107.72 123.51 327.57 138.24 327.57 687.15 333.1 686.65 333.1 134.4 107.72 117.18 107.72 123.51" fill="#151c2b"/><polygon points="316.33 440.6 279.91 441.95 279.91 363.82 316.33 365.17 316.33 440.6" fill="#525a6a"/><polygon points="318.55 440.6 282.13 441.95 282.13 363.82 318.55 365.17 318.55 440.6" fill="url(#linear-gradient-6)"/><path d="M305.4,380.24h-46.54c-2.45,0-4.43,1.99-4.43,4.43v8.87c0,2.45,1.99,4.43,4.43,4.43h2.21c2.45,0,4.43-1.99,4.43-4.43h0c0-2.45,1.99-4.43,4.43-4.43h35.46c2.45,0,4.43-1.99,4.43-4.43h0c0-2.45-1.99-4.43-4.43-4.43Z" fill="url(#linear-gradient-7)"/><path d="M307.02,409.54c0,3.38-2.45,6.11-5.53,6.11s-5.77-2.85-5.77-6.37,2.61-6.25,5.77-6.11,5.53,2.98,5.53,6.36Z" fill="#151c2b"/><polygon points="304.53 427.78 298.37 428.05 298.37 410.49 304.53 410.6 304.53 427.78" fill="#151c2b"/><polygon points="1067.49 710.22 781.96 684.39 781.96 111.56 1067.49 85.73 1067.49 710.22" fill="#223654"/><polygon points="1067.49 85.73 1083.9 93.64 1083.9 705.84 1067.49 710.22 1067.49 85.73" fill="url(#linear-gradient-8)"/><polygon points="1032.28 707.04 1032.28 117.18 806.9 134.4 806.9 686.65 1032.28 707.04" fill="url(#linear-gradient-9)"/><polygon points="1032.28 123.51 812.43 138.24 812.43 687.15 806.9 686.65 806.9 134.4 1032.28 117.18 1032.28 123.51" fill="#151c2b"/><polygon points="993.33 441.76 1028.72 441.95 1028.72 363.82 993.33 364.01 993.33 441.76" fill="#525a6a"/><polygon points="991.1 441.83 1026.62 442.02 1026.62 363.74 991.1 363.94 991.1 441.83" fill="url(#linear-gradient-10)"/><path d="M1010.35,379.88l-47.1-.93c-2.58-.05-4.69,2.01-4.69,4.61v9.41c0,2.6,2.1,4.71,4.69,4.72h2.32c2.56.02,4.63-2.06,4.63-4.63h0c0-2.57,2.06-4.63,4.6-4.6l35.54.42c2.38.03,4.3-1.96,4.3-4.44h0c0-2.48-1.92-4.53-4.3-4.57Z" fill="url(#linear-gradient-11)"/><path d="M1002.59,409.7c0,3.45,2.41,6.22,5.43,6.19s5.61-2.95,5.61-6.51c0-3.56-2.53-6.33-5.61-6.19s-5.43,3.05-5.43,6.51Z" fill="#151c2b"/><polygon points="1005.04 428.29 1011.05 428.44 1011.05 410.61 1005.04 410.76 1005.04 428.29" fill="#151c2b"/></g><g id="Layer_4"><path d="M370.8,433.85l-210.05,7.62c-12.3.45-22.33-9.02-22.33-21.16v-220.66c0-12.13,10.03-21.6,22.33-21.16l210.05,7.62c10.84.39,19.59,9.87,19.59,21.16v205.42c0,11.29-8.74,20.77-19.59,21.16Z" fill="#eb0037" opacity=".4"/><path d="M377.24,433.85l-210.05,7.62c-12.3.45-22.33-9.02-22.33-21.16v-220.66c0-12.13,10.03-21.6,22.33-21.16l210.05,7.62c10.84.39,19.59,9.87,19.59,21.16v205.42c0,11.29-8.74,20.77-19.59,21.16Z" fill="#eb0037" opacity=".4"/><path d="M779.55,429.44l202.57,7.34c11.86.43,21.54-8.7,21.54-20.4v-212.8c0-11.7-9.67-20.83-21.54-20.4l-202.57,7.34c-10.46.38-18.89,9.51-18.89,20.4v198.11c0,10.89,8.43,20.03,18.89,20.4Z" fill="#ecbb0a" opacity=".4"/><path d="M773.34,429.44l202.57,7.34c11.86.43,21.54-8.7,21.54-20.4v-212.8c0-11.7-9.67-20.83-21.54-20.4l-202.57,7.34c-10.46.38-18.89,9.51-18.89,20.4v198.11c0,10.89,8.43,20.03,18.89,20.4Z" fill="#ecbb0a" opacity=".4"/><rect x="454.76" y="194.9" width="230.17" height="230.17" rx="19.11" ry="19.11" fill="#eb0037" opacity=".4"/><rect x="454.76" y="194.9" width="230.17" height="230.17" rx="19.11" ry="19.11" fill="#ecbb0a" opacity=".4"/><path d="M556.03,228.96l-48.36,83.76c-6.14,10.63,1.53,23.92,13.81,23.92h96.72c12.27,0,19.95-13.29,13.81-23.92l-48.36-83.76c-6.14-10.63-21.48-10.63-27.62,0Z" fill="#ffa300"/><path d="M560.54,315.44c0-5.5,3.97-9.73,9.31-9.73s9.31,4.24,9.31,9.73-3.97,9.7-9.31,9.7-9.31-4.24-9.31-9.7ZM562.64,267.49l-.52-13.95h15.47l-.52,13.95-2.15,32.1h-10.13l-2.15-32.1Z" fill="#fff"/><path d="M260.42,217.39l-59.39,101.67c-7.73,13.23,1.93,29.75,17.23,29.66l114.76-.74c13.86-.09,22.45-15.73,15.59-28.23l-55.43-100.93c-7.21-13.12-25.4-14-32.75-1.42Z" fill="#ff0025"/><path d="M265.82,322.67c0-6.68,4.73-11.79,11.09-11.74s11,5.19,11,11.81-4.67,11.68-11,11.69-11.09-5.13-11.09-11.77ZM268.33,264.5l-.62-16.94,18.34.59-.61,16.79-2.54,38.67-12.01-.13-2.56-38.98Z" fill="#fff"/><path d="M884.09,219.66l56.78,98.56c7.39,12.83-1.84,28.68-16.47,28.45l-109.73-1.7c-13.26-.21-21.47-15.37-14.9-27.36l53-96.86c6.89-12.6,24.29-13.29,31.32-1.09Z" fill="#ffa300"/><path d="M868.31,332.39c-6.05-.06-10.52-5.03-10.52-11.37,0-6.39,4.47-11.3,10.52-11.3s10.61,4.97,10.61,11.41c0,6.4-4.53,11.31-10.61,11.25ZM874.07,302.59l-11.49.02-2.42-37.32-.58-16.2,17.54-.41-.59,16.33-2.45,37.57Z" fill="#fff"/><path d="M165.06,374.5l5.29-.11c3.38-.07,6.1,1.05,6.1,4.68s-2.75,5.13-6,5.2l-1.9.04v5.08l-3.48.09v-14.99ZM170.24,381.6c1.91-.04,2.81-.89,2.81-2.45s-1.03-2.1-2.91-2.07l-1.6.03v4.52l1.7-.04Z" fill="#fff"/><path d="M177.65,383.5c0-3.78,2.72-6.02,5.66-6.08s5.64,2.06,5.64,5.82-2.71,6-5.64,6.07-5.66-2.04-5.66-5.81ZM185.44,383.32c0-1.96-.71-3.22-2.13-3.19s-2.13,1.32-2.13,3.29.71,3.21,2.13,3.18,2.13-1.32,2.13-3.28Z" fill="#fff"/><path d="M191.16,384.73v-4.57l-1.58.03v-2.5l1.77-.17.4-3.01,2.83-.06v3l2.76-.06v2.62l-2.76.06v4.52c0,1.28.59,1.78,1.49,1.76.38,0,.79-.13,1.09-.24l.54,2.42c-.61.21-1.44.45-2.56.47-2.85.07-3.98-1.67-3.98-4.29Z" fill="#fff"/><path d="M198.5,383.02c0-3.66,2.66-5.98,5.41-6.03,3.26-.07,4.87,2.23,4.87,5.3,0,.6-.08,1.2-.14,1.48l-6.84.16c.3,1.63,1.44,2.35,2.97,2.31.86-.02,1.64-.3,2.47-.8l1.12,1.98c-1.17.83-2.7,1.33-4.06,1.37-3.27.08-5.8-2.03-5.8-5.77ZM205.89,381.62c0-1.24-.55-2.12-1.9-2.09-1.07.02-2,.75-2.23,2.18l4.13-.09Z" fill="#fff"/><path d="M211.11,377.11l2.75-.06.24,1.42h.08c.96-.93,2.1-1.74,3.65-1.77,2.46-.05,3.51,1.65,3.51,4.44v6.95l-3.36.08v-6.54c0-1.61-.44-2.11-1.41-2.09-.84.02-1.36.42-2.1,1.14v7.57l-3.37.08v-11.24Z" fill="#fff"/><path d="M224.65,383.94v-4.52l-1.54.03v-2.47l1.73-.16.39-2.98,2.76-.06v2.97l2.7-.06v2.6l-2.7.06v4.47c0,1.27.58,1.76,1.46,1.74.37,0,.77-.12,1.07-.24l.53,2.39c-.6.2-1.41.44-2.5.47-2.79.07-3.89-1.65-3.89-4.24Z" fill="#fff"/><path d="M232.63,373.29c0-1.01.81-1.74,1.92-1.77s1.92.68,1.92,1.69-.81,1.74-1.92,1.77-1.92-.68-1.92-1.69ZM232.89,376.65l3.32-.07v11.15l-3.32.08v-11.16Z" fill="#fff"/><path d="M238.61,384.58c0-2.35,1.87-3.66,6.29-4.22-.07-.97-.55-1.59-1.76-1.57-.94.02-1.87.43-2.96,1.07l-1.18-2.14c1.42-.89,3.02-1.53,4.77-1.57,2.85-.06,4.42,1.53,4.42,4.93v6.35l-2.69.07-.24-1.13h-.08c-.94.85-1.99,1.46-3.24,1.49-2.04.05-3.33-1.4-3.33-3.28ZM244.9,384.28v-1.94c-2.35.37-3.12,1.06-3.12,1.9,0,.72.5,1.06,1.28,1.04s1.25-.4,1.84-.99Z" fill="#fff"/><path d="M250.96,383.91v-12.21l3.29-.06v12.34c0,.7.33.92.59.91.13,0,.22,0,.4-.05l.39,2.41c-.36.16-.9.3-1.65.31-2.25.06-3.02-1.4-3.02-3.64Z" fill="#fff"/><path d="M262.07,372.57l5.2-.1c3.06-.06,5.56.95,5.56,4.39s-2.5,4.81-5.56,4.88l-1.94.04v5.22l-3.27.08v-14.52ZM267.01,379.15c1.71-.04,2.63-.8,2.63-2.22s-.92-1.89-2.63-1.86l-1.67.03v4.08l1.67-.04ZM266.68,380.89l2.25-2.15,4.59,8.06-3.64.09-3.21-6Z" fill="#fff"/><path d="M274.67,383.72c0-2.32,1.83-3.61,6.14-4.17-.06-.96-.54-1.58-1.72-1.55-.91.02-1.83.43-2.89,1.06l-1.15-2.11c1.38-.88,2.94-1.51,4.66-1.55,2.78-.06,4.32,1.51,4.32,4.87v6.27l-2.63.07-.23-1.12h-.08c-.92.84-1.94,1.44-3.17,1.47-1.99.05-3.25-1.38-3.25-3.24ZM280.81,383.43v-1.92c-2.29.37-3.04,1.04-3.04,1.88,0,.71.48,1.04,1.25,1.03s1.22-.39,1.79-.98Z" fill="#fff"/><path d="M286.73,375.51l2.62-.06.23,1.38h.08c.91-.91,2-1.69,3.47-1.73,2.34-.05,3.34,1.61,3.34,4.34v6.78l-3.19.08v-6.37c0-1.57-.42-2.06-1.34-2.04-.8.02-1.3.41-2,1.11v7.38l-3.21.08v-10.96Z" fill="#fff"/><path d="M298.22,384.93l1.43-2.05c.97.72,1.87,1.1,2.77,1.08.94-.02,1.35-.4,1.35-.97,0-.72-1.06-1.02-2.17-1.43-1.32-.49-2.84-1.34-2.84-3.14,0-2.03,1.62-3.45,4.1-3.5,1.64-.03,2.86.61,3.77,1.3l-1.42,1.97c-.76-.55-1.51-.9-2.25-.88-.82.02-1.22.35-1.22.9,0,.69,1,.94,2.11,1.32,1.36.48,2.88,1.22,2.88,3.21s-1.53,3.55-4.4,3.62c-1.41.04-3.03-.55-4.12-1.42Z" fill="#fff"/><path d="M308.12,380.51c0-3.62,2.5-5.76,5.19-5.82s5.17,1.97,5.17,5.58-2.48,5.74-5.17,5.81-5.19-1.96-5.19-5.57ZM315.26,380.34c0-1.88-.65-3.08-1.95-3.06s-1.95,1.26-1.95,3.14.65,3.08,1.95,3.05,1.95-1.26,1.95-3.14Z" fill="#fff"/><path d="M320.63,374.8l2.56-.05.23,1.38h.08c.87-.91,1.81-1.69,3.2-1.72,1.48-.03,2.38.61,2.91,1.76.93-1.01,1.91-1.86,3.3-1.89,2.27-.05,3.28,1.58,3.28,4.28v6.69l-3.11.08v-6.29c0-1.55-.41-2.03-1.3-2.01-.53.01-1.13.36-1.79,1.09v7.28l-3.12.08v-6.3c0-1.56-.42-2.03-1.3-2.01-.52.01-1.13.36-1.8,1.09v7.3l-3.13.08v-10.83Z" fill="#fff"/><path d="M337.95,374.43l3.08-.06,1,4.96c.18,1.06.3,2.1.47,3.18h.08c.18-1.09.37-2.18.62-3.21l1.14-5,2.68-.06,1.17,4.94c.25,1.05.43,2.09.65,3.17h.08c.18-1.09.3-2.14.48-3.2l.99-4.99,2.84-.06-2.48,10.77-3.6.09-.95-4.27c-.19-.99-.37-1.98-.55-3.13h-.08c-.18,1.16-.33,2.16-.53,3.16l-.91,4.31-3.54.09-2.62-10.7Z" fill="#fff"/><path d="M354.39,381.83c0-2.26,1.73-3.52,5.81-4.05-.06-.93-.51-1.53-1.63-1.51-.87.02-1.73.42-2.73,1.03l-1.09-2.06c1.31-.86,2.79-1.47,4.41-1.5,2.63-.06,4.09,1.47,4.09,4.74v6.1l-2.49.06-.22-1.09h-.08c-.87.81-1.84,1.4-3,1.43-1.88.05-3.08-1.35-3.08-3.15ZM360.21,381.55v-1.87c-2.17.35-2.88,1.01-2.88,1.82,0,.69.46,1.02,1.18,1s1.16-.38,1.7-.96Z" fill="#fff"/><path d="M365.82,373.85l2.48-.05.22,1.86h.08c.75-1.44,1.86-2.16,2.91-2.18.58-.01.92.06,1.22.19l-.5,2.73c-.36-.09-.66-.16-1.1-.15-.77.02-1.71.55-2.25,2.02v6.17l-3.04.08v-10.67Z" fill="#fff"/><path d="M373.23,379.01c0-3.45,2.36-5.63,4.81-5.68,2.9-.06,4.33,2.1,4.33,5,0,.57-.07,1.13-.13,1.39l-6.08.14c.27,1.54,1.28,2.22,2.64,2.19.77-.02,1.46-.28,2.2-.75l1,1.87c-1.04.78-2.4,1.25-3.61,1.28-2.9.07-5.16-1.92-5.16-5.44ZM379.8,377.7c0-1.17-.49-2-1.69-1.97-.95.02-1.78.71-1.98,2.05l3.67-.08Z" fill="#fff"/><path d="M250.33,399.64l3.94-.11,4.56,14.4-3.47.12-1.9-7.31c-.41-1.44-.79-3.15-1.18-4.66h-.09c-.35,1.55-.74,3.27-1.15,4.74l-1.92,7.44-3.38.11,4.59-14.73ZM248.76,408.23l7.01-.22v2.56l-7.01.23v-2.56Z" fill="#fff"/><path d="M260.17,409.86v-4.47l-1.51.05v-2.45l1.69-.18.38-2.95,2.7-.08v2.93l2.64-.08v2.57l-2.64.08v4.42c0,1.25.57,1.74,1.42,1.71.36-.01.76-.13,1.05-.24l.51,2.36c-.58.2-1.38.45-2.44.48-2.72.09-3.8-1.6-3.8-4.16Z" fill="#fff"/><path d="M268.22,409.6v-4.45l-1.5.05v-2.44l1.68-.18.38-2.94,2.69-.08v2.93l2.62-.08v2.56l-2.62.08v4.41c0,1.25.56,1.73,1.42,1.7.36-.01.75-.13,1.04-.24l.51,2.35c-.58.2-1.37.45-2.43.48-2.71.09-3.78-1.59-3.78-4.15Z" fill="#fff"/><path d="M275.29,410.32c0-2.32,1.83-3.63,6.14-4.22-.06-.96-.54-1.57-1.72-1.53-.91.03-1.83.44-2.88,1.08l-1.15-2.1c1.38-.89,2.94-1.54,4.66-1.59,2.78-.08,4.32,1.47,4.32,4.83v6.27l-2.63.09-.23-1.12h-.08c-.92.85-1.94,1.46-3.17,1.5-1.99.07-3.25-1.35-3.25-3.21ZM281.43,409.97v-1.92c-2.29.39-3.04,1.07-3.04,1.9,0,.71.48,1.04,1.25,1.01s1.22-.4,1.79-1Z" fill="#fff"/><path d="M286.71,407.51c0-3.64,2.65-5.83,5.63-5.92,1.33-.04,2.35.41,3.15,1.08l-1.51,2.13c-.52-.43-.95-.62-1.46-.6-1.54.05-2.53,1.31-2.53,3.2s1.03,3.08,2.42,3.04c.71-.02,1.39-.4,1.95-.87l1.25,2.08c-1.05.97-2.38,1.38-3.55,1.42-3.02.1-5.35-1.92-5.35-5.56Z" fill="#fff"/><path d="M297.5,397.2l3.11-.09v8.82h.08s3.4-4.43,3.4-4.43l3.44-.1-3.75,4.6,4.03,6.27-3.43.12-2.41-4.17-1.36,1.61v2.68l-3.11.1v-15.42Z" fill="#fff"/><path d="M510.09,359.47h4.24c4.58,0,7.53,2.28,7.53,7.43s-2.95,7.56-7.34,7.56h-4.43v-14.99ZM514.13,371.73c2.54,0,4.26-1.25,4.26-4.83s-1.72-4.7-4.26-4.7h-.64v9.53h.64Z" fill="#fff"/><path d="M523.89,371.29c0-2.4,1.91-3.71,6.42-4.18-.07-1-.57-1.65-1.8-1.65-.96,0-1.91.4-3.02,1.03l-1.2-2.22c1.45-.88,3.08-1.5,4.87-1.5,2.92,0,4.53,1.67,4.53,5.16v6.52h-2.76l-.24-1.17h-.08c-.96.84-2.04,1.44-3.32,1.44-2.08,0-3.4-1.52-3.4-3.44ZM530.32,371.14v-1.99c-2.4.32-3.19,1.01-3.19,1.87,0,.74.51,1.1,1.31,1.1s1.28-.38,1.88-.98Z" fill="#fff"/><path d="M536.58,370.31v-4.61h-1.56v-2.52l1.75-.13.39-3.03h2.8v3.03h2.73v2.65h-2.73v4.57c0,1.29.59,1.81,1.48,1.81.38,0,.78-.11,1.08-.22l.53,2.45c-.61.19-1.43.41-2.54.41-2.82,0-3.94-1.78-3.94-4.42Z" fill="#fff"/><path d="M543.95,371.29c0-2.4,1.91-3.71,6.42-4.18-.07-1-.57-1.65-1.8-1.65-.96,0-1.91.4-3.02,1.03l-1.2-2.22c1.45-.88,3.08-1.5,4.87-1.5,2.92,0,4.53,1.67,4.53,5.16v6.52h-2.76l-.24-1.17h-.08c-.96.84-2.04,1.44-3.32,1.44-2.08,0-3.4-1.52-3.4-3.44ZM550.37,371.14v-1.99c-2.4.32-3.19,1.01-3.19,1.87,0,.74.51,1.1,1.31,1.1s1.28-.38,1.88-.98Z" fill="#fff"/><path d="M560.51,372.57l1.95-2.32c1.07.93,2.45,1.57,3.68,1.57,1.41,0,2.11-.56,2.11-1.45,0-.94-.85-1.25-2.16-1.78l-1.95-.83c-1.55-.63-3.02-1.91-3.02-4.09,0-2.48,2.22-4.47,5.34-4.47,1.73,0,3.53.68,4.82,1.96l-1.71,2.14c-.99-.76-1.93-1.17-3.11-1.17s-1.91.49-1.91,1.34c0,.92.98,1.25,2.29,1.77l1.91.77c1.83.74,2.97,1.96,2.97,4.08,0,2.49-2.07,4.65-5.65,4.65-1.95,0-4.02-.74-5.55-2.17Z" fill="#fff"/><path d="M573.8,370.31v-4.61h-1.56v-2.52l1.75-.13.39-3.03h2.8v3.03h2.73v2.65h-2.73v4.57c0,1.29.59,1.81,1.48,1.81.38,0,.78-.11,1.08-.22l.53,2.45c-.61.19-1.43.41-2.54.41-2.82,0-3.94-1.78-3.94-4.42Z" fill="#fff"/><path d="M581.07,368.76c0-3.7,2.64-5.98,5.38-5.98,3.25,0,4.86,2.36,4.86,5.48,0,.61-.08,1.22-.14,1.49h-6.83c.3,1.65,1.44,2.41,2.96,2.41.86,0,1.64-.26,2.47-.75l1.12,2.04c-1.17.81-2.7,1.29-4.05,1.29-3.25,0-5.77-2.2-5.77-5.98ZM588.42,367.51c0-1.25-.55-2.16-1.9-2.16-1.07,0-1.99.72-2.22,2.16h4.12Z" fill="#fff"/><path d="M592.87,371.29c0-2.4,1.91-3.71,6.42-4.18-.07-1-.57-1.65-1.8-1.65-.96,0-1.91.4-3.02,1.03l-1.2-2.22c1.45-.88,3.08-1.5,4.87-1.5,2.92,0,4.53,1.67,4.53,5.16v6.52h-2.76l-.24-1.17h-.08c-.96.84-2.04,1.44-3.32,1.44-2.08,0-3.4-1.52-3.4-3.44ZM599.3,371.14v-1.99c-2.4.32-3.19,1.01-3.19,1.87,0,.74.51,1.1,1.31,1.1s1.28-.38,1.88-.98Z" fill="#fff"/><path d="M605.52,370.91v-12.56h3.38v12.7c0,.73.33.96.61.96.13,0,.22,0,.41-.05l.4,2.49c-.37.16-.93.28-1.7.28-2.32,0-3.11-1.51-3.11-3.82Z" fill="#fff"/><path d="M611.43,368.76c0-3.7,2.64-5.98,5.38-5.98,3.25,0,4.86,2.36,4.86,5.48,0,.61-.08,1.22-.14,1.49h-6.83c.3,1.65,1.44,2.41,2.96,2.41.86,0,1.64-.26,2.47-.75l1.12,2.04c-1.17.81-2.7,1.29-4.05,1.29-3.25,0-5.77-2.2-5.77-5.98ZM618.78,367.51c0-1.25-.55-2.16-1.9-2.16-1.07,0-1.99.72-2.22,2.16h4.12Z" fill="#fff"/><path d="M624.01,363.05h2.76l.24,1.99h.08c.83-1.52,2.08-2.27,3.24-2.27.65,0,1.03.08,1.36.23l-.56,2.92c-.41-.1-.74-.18-1.23-.18-.86,0-1.9.55-2.51,2.11v6.61h-3.38v-11.41Z" fill="#fff"/><path d="M522.68,387.07h4.24c4.58,0,7.53,2.28,7.53,7.43s-2.95,7.56-7.34,7.56h-4.43v-14.99ZM526.71,399.33c2.54,0,4.26-1.25,4.26-4.83s-1.72-4.7-4.26-4.7h-.64v9.53h.64Z" fill="#fff"/><path d="M536.34,396.36c0-3.7,2.64-5.98,5.38-5.98,3.25,0,4.86,2.36,4.86,5.48,0,.61-.08,1.22-.14,1.49h-6.83c.3,1.65,1.44,2.41,2.96,2.41.86,0,1.64-.26,2.47-.75l1.12,2.04c-1.17.81-2.7,1.29-4.05,1.29-3.25,0-5.77-2.2-5.77-5.98ZM543.69,395.11c0-1.25-.55-2.16-1.9-2.16-1.07,0-1.99.72-2.22,2.16h4.12Z" fill="#fff"/><path d="M549.14,397.91v-4.61h-1.56v-2.52l1.75-.13.39-3.03h2.8v3.03h2.73v2.65h-2.73v4.57c0,1.29.59,1.81,1.48,1.81.38,0,.78-.11,1.08-.22l.53,2.45c-.61.19-1.43.41-2.54.41-2.82,0-3.94-1.78-3.94-4.42Z" fill="#fff"/><path d="M556.42,396.36c0-3.7,2.64-5.98,5.38-5.98,3.25,0,4.86,2.36,4.86,5.48,0,.61-.08,1.22-.14,1.49h-6.83c.3,1.65,1.44,2.41,2.96,2.41.86,0,1.64-.26,2.47-.75l1.12,2.04c-1.17.81-2.7,1.29-4.05,1.29-3.25,0-5.77-2.2-5.77-5.98ZM563.77,395.11c0-1.25-.55-2.16-1.9-2.16-1.07,0-1.99.72-2.22,2.16h4.12Z" fill="#fff"/><path d="M568.33,396.36c0-3.79,2.79-5.98,5.94-5.98,1.4,0,2.48.5,3.33,1.23l-1.6,2.17c-.55-.46-1-.67-1.55-.67-1.62,0-2.67,1.28-2.67,3.26s1.09,3.25,2.56,3.25c.75,0,1.47-.37,2.06-.84l1.32,2.21c-1.11.98-2.52,1.36-3.76,1.36-3.18,0-5.64-2.19-5.64-5.98Z" fill="#fff"/><path d="M579.96,397.91v-4.61h-1.56v-2.52l1.75-.13.39-3.03h2.8v3.03h2.73v2.65h-2.73v4.57c0,1.29.59,1.81,1.48,1.81.38,0,.78-.11,1.08-.22l.53,2.45c-.61.19-1.43.41-2.54.41-2.82,0-3.94-1.78-3.94-4.42Z" fill="#fff"/><path d="M588.05,387.21c0-1.04.82-1.77,1.96-1.77s1.96.73,1.96,1.77-.82,1.77-1.96,1.77-1.96-.74-1.96-1.77ZM588.31,390.65h3.38v11.41h-3.38v-11.41Z" fill="#fff"/><path d="M594,396.36c0-3.79,2.67-5.98,5.56-5.98s5.56,2.19,5.56,5.98-2.67,5.98-5.56,5.98-5.56-2.19-5.56-5.98ZM601.65,396.36c0-1.97-.69-3.26-2.09-3.26s-2.09,1.28-2.09,3.26.69,3.25,2.09,3.25,2.09-1.27,2.09-3.25Z" fill="#fff"/><path d="M607.42,390.65h2.76l.24,1.44h.08c.96-.92,2.11-1.72,3.67-1.72,2.48,0,3.54,1.75,3.54,4.6v7.08h-3.38v-6.65c0-1.64-.44-2.16-1.42-2.16-.85,0-1.37.39-2.11,1.11v7.7h-3.38v-11.41Z" fill="#fff"/><path d="M794.78,369.64l4.94.05c2.92.03,5.32,1.09,5.32,4.43s-2.4,4.58-5.32,4.53l-1.84-.03v5.03l-3.1-.05v-13.96ZM799.47,376.13c1.64.02,2.52-.68,2.52-2.06s-.88-1.86-2.52-1.88l-1.59-.02v3.93l1.59.02ZM799.16,377.81l2.15-2,4.4,7.98-3.49-.06-3.06-5.92Z" fill="#fff"/><path d="M807.74,369.78l3.92.04c4.26.05,7.01,2.22,7.01,7.07s-2.75,7.07-6.83,7l-4.1-.07v-14.05ZM811.47,381.33c2.36.04,3.96-1.11,3.96-4.48s-1.6-4.44-3.96-4.47h-.6s0,8.94,0,8.94h.6Z" fill="#fff"/><path d="M821.33,369.92l4.83.05c3.11.03,5.62,1.18,5.62,4.63s-2.54,4.78-5.53,4.73l-1.74-.03v4.8l-3.18-.05v-14.14ZM826.06,376.79c1.75.02,2.58-.75,2.58-2.23s-.95-2.03-2.67-2.05l-1.47-.02v4.27l1.55.02Z" fill="#fff"/><path d="M838.6,370.1l4.89.05c2.98.03,5.29.87,5.29,3.61,0,1.28-.72,2.64-1.89,3.06v.09c1.47.4,2.6,1.49,2.6,3.41,0,2.91-2.47,4.18-5.59,4.12l-5.3-.09v-14.25ZM843.34,375.87c1.57.02,2.27-.63,2.27-1.67,0-1.1-.73-1.54-2.24-1.56l-1.54-.02v3.23l1.51.02ZM843.64,381.95c1.77.03,2.68-.58,2.68-1.88s-.9-1.78-2.68-1.8l-1.81-.03v3.68l1.81.03Z" fill="#fff"/><path d="M851.64,373.66l2.66.03.24,1.91h.08c.8-1.45,2.01-2.15,3.13-2.14.63,0,1,.09,1.32.24l-.55,2.79c-.39-.1-.72-.19-1.19-.19-.83-.01-1.84.51-2.43,1.99v6.33l-3.26-.06v-10.91Z" fill="#fff"/><path d="M860.38,380.57v-6.8l3.28.04v6.39c0,1.58.43,2.08,1.38,2.09.83.01,1.33-.32,1.98-1.18v-7.27l3.3.04v11l-2.7-.05-.24-1.53h-.08c-.93,1.08-1.98,1.75-3.49,1.73-2.41-.04-3.44-1.74-3.44-4.48Z" fill="#fff"/><path d="M873.68,380.95v-4.45l-1.53-.02v-2.43l1.71-.1.39-2.92,2.75.03v2.93l2.7.03v2.57l-2.7-.04v4.42c0,1.25.58,1.76,1.45,1.78.37,0,.77-.09,1.07-.19l.53,2.39c-.6.18-1.41.38-2.5.36-2.77-.05-3.87-1.79-3.87-4.34Z" fill="#fff"/><path d="M880.85,379.55c0-3.59,2.61-5.77,5.33-5.73,3.23.04,4.83,2.36,4.83,5.39,0,.59-.08,1.18-.14,1.45l-6.78-.1c.3,1.61,1.42,2.37,2.94,2.39.86.01,1.63-.23,2.45-.69l1.11,2c-1.16.77-2.68,1.2-4.03,1.18-3.22-.06-5.72-2.23-5.72-5.89ZM888.14,378.44c0-1.22-.54-2.1-1.88-2.12-1.06-.01-1.97.67-2.2,2.06l4.09.06Z" fill="#fff"/><path d="M898.23,370.74l9.53.1v2.79l-6.13-.07v3.4l5.23.07v2.79l-5.23-.08v5.7l-3.41-.06v-14.64Z" fill="#fff"/><path d="M909.01,379.96c0-3.72,2.71-5.84,5.64-5.8s5.67,2.23,5.67,5.97-2.73,5.85-5.67,5.8-5.64-2.25-5.64-5.96ZM916.79,380.08c0-1.94-.71-3.22-2.13-3.23s-2.13,1.23-2.13,3.17.71,3.2,2.13,3.23,2.13-1.22,2.13-3.16Z" fill="#fff"/><path d="M922.7,374.53l2.83.03.25,1.97h.09c.85-1.49,2.14-2.22,3.34-2.2.67,0,1.06.1,1.4.24l-.58,2.88c-.42-.1-.76-.19-1.27-.2-.89-.01-1.96.52-2.59,2.05v6.54l-3.47-.06v-11.26Z" fill="#fff"/><path d="M931.2,380.29c0-3.76,2.89-5.89,6.16-5.86,1.46.02,2.58.53,3.47,1.26l-1.66,2.14c-.57-.47-1.04-.68-1.61-.69-1.69-.02-2.77,1.24-2.77,3.19s1.13,3.24,2.65,3.27c.78.01,1.52-.34,2.14-.8l1.38,2.22c-1.16.95-2.63,1.31-3.91,1.28-3.3-.06-5.84-2.27-5.84-6.02Z" fill="#fff"/><path d="M941.68,380.44c0-3.68,2.76-5.92,5.62-5.89,3.41.04,5.1,2.42,5.1,5.54,0,.61-.08,1.22-.15,1.49l-7.16-.11c.32,1.65,1.5,2.43,3.1,2.46.9.01,1.72-.23,2.59-.7l1.18,2.06c-1.23.79-2.83,1.24-4.25,1.21-3.4-.06-6.03-2.29-6.03-6.05ZM949.37,379.31c0-1.25-.57-2.16-1.99-2.18-1.12-.01-2.08.69-2.32,2.12l4.31.06Z" fill="#fff"/><path d="M843.37,396.45l3.88.09,4.52,14.44-3.45-.1-1.88-7.3c-.4-1.44-.78-3.14-1.16-4.64h-.09c-.35,1.5-.73,3.16-1.13,4.58l-1.88,7.18-3.3-.1,4.49-14.15ZM841.84,404.78l6.9.18v2.51l-6.9-.19v-2.51Z" fill="#fff"/><path d="M853.11,407.04v-4.41l-1.5-.04v-2.41l1.68-.08.38-2.89,2.7.06v2.9l2.65.06v2.54l-2.65-.07v4.38c0,1.24.57,1.75,1.43,1.78.36.01.76-.08,1.05-.18l.52,2.37c-.59.17-1.38.36-2.45.33-2.72-.08-3.8-1.81-3.8-4.34Z" fill="#fff"/><path d="M861.19,407.26v-4.43l-1.51-.04v-2.42l1.7-.08.38-2.9,2.72.06v2.91l2.67.06v2.55l-2.67-.07v4.39c0,1.24.57,1.76,1.44,1.78.37.01.76-.08,1.06-.18l.52,2.38c-.59.17-1.39.36-2.47.33-2.74-.08-3.83-1.82-3.83-4.36Z" fill="#fff"/><path d="M868.36,408.41c0-2.32,1.87-3.52,6.29-3.87-.07-.97-.56-1.61-1.77-1.64-.94-.02-1.87.34-2.96.92l-1.17-2.17c1.42-.82,3.01-1.37,4.77-1.33,2.87.07,4.46,1.72,4.46,5.1v6.31l-2.71-.08-.24-1.14h-.08c-.94.79-2,1.34-3.26,1.3-2.04-.06-3.33-1.56-3.33-3.41ZM874.66,408.44v-1.93c-2.36.25-3.13.89-3.13,1.72,0,.71.5,1.07,1.28,1.09s1.25-.33,1.84-.89Z" fill="#fff"/><path d="M880.13,406.28c0-3.67,2.76-5.73,5.88-5.66,1.39.03,2.47.55,3.31,1.27l-1.59,2.07c-.54-.46-1-.68-1.54-.69-1.61-.04-2.65,1.18-2.65,3.09s1.08,3.18,2.53,3.22c.74.02,1.46-.32,2.05-.76l1.32,2.19c-1.1.92-2.51,1.25-3.74,1.21-3.16-.09-5.58-2.29-5.58-5.95Z" fill="#fff"/><path d="M891.45,396.44l3.3.07v9h.08s3.63-4.32,3.63-4.32l3.69.09-4.02,4.49,4.32,6.67-3.68-.11-2.57-4.42-1.45,1.56v2.74l-3.3-.1v-15.68Z" fill="#fff"/></g></svg>